<mxfile host="app.diagrams.net" modified="2023-09-17T09:00:52.569Z" agent="Mozilla/5.0 (Windows NT 10.0; Win64; x64) AppleWebKit/537.36 (KHTML, like Gecko) Chrome/117.0.0.0 Safari/537.36" etag="J25DNirO4NlFkHUWV5LQ" version="21.7.5" type="device">
  <diagram id="C5RBs43oDa-KdzZeNtuy" name="Page-1">
    <mxGraphModel dx="1430" dy="826" grid="1" gridSize="10" guides="1" tooltips="1" connect="1" arrows="1" fold="1" page="1" pageScale="1" pageWidth="1169" pageHeight="827" math="0" shadow="0">
      <root>
        <mxCell id="WIyWlLk6GJQsqaUBKTNV-0" />
        <mxCell id="WIyWlLk6GJQsqaUBKTNV-1" parent="WIyWlLk6GJQsqaUBKTNV-0" />
        <mxCell id="_YLGB2GQ0n293Me-cr1F-0" value="&lt;font style=&quot;font-size: 20px;&quot;&gt;Auto&lt;/font&gt;" style="rounded=0;whiteSpace=wrap;html=1;" parent="WIyWlLk6GJQsqaUBKTNV-1" vertex="1">
          <mxGeometry x="755" y="161" width="120" height="60" as="geometry" />
        </mxCell>
        <mxCell id="_YLGB2GQ0n293Me-cr1F-1" value="&lt;font style=&quot;font-size: 20px;&quot;&gt;Categoria&lt;/font&gt;" style="whiteSpace=wrap;html=1;" parent="WIyWlLk6GJQsqaUBKTNV-1" vertex="1">
          <mxGeometry x="225" y="161" width="120" height="60" as="geometry" />
        </mxCell>
        <mxCell id="_YLGB2GQ0n293Me-cr1F-4" value="&lt;font style=&quot;font-size: 18px;&quot;&gt;Targa&lt;/font&gt;" style="text;html=1;align=center;verticalAlign=middle;resizable=0;points=[];autosize=1;strokeColor=none;fillColor=none;" parent="WIyWlLk6GJQsqaUBKTNV-1" vertex="1">
          <mxGeometry x="925" y="78" width="70" height="40" as="geometry" />
        </mxCell>
        <mxCell id="_YLGB2GQ0n293Me-cr1F-5" value="&lt;font style=&quot;font-size: 17px;&quot;&gt;Appartenenza&lt;/font&gt;" style="html=1;whiteSpace=wrap;aspect=fixed;shape=isoRectangle;" parent="WIyWlLk6GJQsqaUBKTNV-1" vertex="1">
          <mxGeometry x="476" y="146" width="150" height="90" as="geometry" />
        </mxCell>
        <mxCell id="_YLGB2GQ0n293Me-cr1F-6" value="" style="endArrow=none;html=1;rounded=0;exitX=1;exitY=0.5;exitDx=0;exitDy=0;" parent="WIyWlLk6GJQsqaUBKTNV-1" source="_YLGB2GQ0n293Me-cr1F-1" edge="1">
          <mxGeometry width="50" height="50" relative="1" as="geometry">
            <mxPoint x="345" y="571" as="sourcePoint" />
            <mxPoint x="475" y="191" as="targetPoint" />
          </mxGeometry>
        </mxCell>
        <mxCell id="_YLGB2GQ0n293Me-cr1F-7" value="" style="endArrow=none;html=1;rounded=0;exitX=1;exitY=0.5;exitDx=0;exitDy=0;" parent="WIyWlLk6GJQsqaUBKTNV-1" edge="1">
          <mxGeometry width="50" height="50" relative="1" as="geometry">
            <mxPoint x="625" y="190.83" as="sourcePoint" />
            <mxPoint x="755" y="190.83" as="targetPoint" />
          </mxGeometry>
        </mxCell>
        <mxCell id="JSG22xjSIqNUpcC9qA1A-0" value="" style="endArrow=none;html=1;rounded=0;exitX=0.75;exitY=0;exitDx=0;exitDy=0;" parent="WIyWlLk6GJQsqaUBKTNV-1" source="_YLGB2GQ0n293Me-cr1F-0" target="JSG22xjSIqNUpcC9qA1A-1" edge="1">
          <mxGeometry width="50" height="50" relative="1" as="geometry">
            <mxPoint x="815" y="161" as="sourcePoint" />
            <mxPoint x="865" y="81" as="targetPoint" />
          </mxGeometry>
        </mxCell>
        <mxCell id="JSG22xjSIqNUpcC9qA1A-1" value="" style="ellipse;whiteSpace=wrap;html=1;aspect=fixed;direction=east;" parent="WIyWlLk6GJQsqaUBKTNV-1" vertex="1">
          <mxGeometry x="895" y="78" width="10" height="10" as="geometry" />
        </mxCell>
        <mxCell id="JSG22xjSIqNUpcC9qA1A-2" value="&lt;font style=&quot;font-size: 18px;&quot;&gt;Marca&lt;/font&gt;" style="text;html=1;align=center;verticalAlign=middle;resizable=0;points=[];autosize=1;strokeColor=none;fillColor=none;" parent="WIyWlLk6GJQsqaUBKTNV-1" vertex="1">
          <mxGeometry x="895" y="48" width="70" height="40" as="geometry" />
        </mxCell>
        <mxCell id="JSG22xjSIqNUpcC9qA1A-3" value="" style="endArrow=none;html=1;rounded=0;exitX=0.998;exitY=0.13;exitDx=0;exitDy=0;exitPerimeter=0;" parent="WIyWlLk6GJQsqaUBKTNV-1" source="_YLGB2GQ0n293Me-cr1F-0" target="JSG22xjSIqNUpcC9qA1A-4" edge="1">
          <mxGeometry width="50" height="50" relative="1" as="geometry">
            <mxPoint x="875" y="188" as="sourcePoint" />
            <mxPoint x="895" y="108" as="targetPoint" />
          </mxGeometry>
        </mxCell>
        <mxCell id="JSG22xjSIqNUpcC9qA1A-4" value="" style="ellipse;whiteSpace=wrap;html=1;aspect=fixed;" parent="WIyWlLk6GJQsqaUBKTNV-1" vertex="1">
          <mxGeometry x="937" y="136" width="10" height="10" as="geometry" />
        </mxCell>
        <mxCell id="JSG22xjSIqNUpcC9qA1A-7" value="&lt;font style=&quot;font-size: 18px;&quot;&gt;Modello&lt;/font&gt;" style="text;html=1;align=center;verticalAlign=middle;resizable=0;points=[];autosize=1;strokeColor=none;fillColor=none;" parent="WIyWlLk6GJQsqaUBKTNV-1" vertex="1">
          <mxGeometry x="940" y="118" width="90" height="40" as="geometry" />
        </mxCell>
        <mxCell id="JSG22xjSIqNUpcC9qA1A-8" value="" style="endArrow=none;html=1;rounded=0;exitX=1;exitY=0.5;exitDx=0;exitDy=0;exitPerimeter=0;" parent="WIyWlLk6GJQsqaUBKTNV-1" target="JSG22xjSIqNUpcC9qA1A-9" edge="1">
          <mxGeometry width="50" height="50" relative="1" as="geometry">
            <mxPoint x="875" y="182" as="sourcePoint" />
            <mxPoint x="895" y="124" as="targetPoint" />
          </mxGeometry>
        </mxCell>
        <mxCell id="JSG22xjSIqNUpcC9qA1A-9" value="" style="ellipse;whiteSpace=wrap;html=1;aspect=fixed;" parent="WIyWlLk6GJQsqaUBKTNV-1" vertex="1">
          <mxGeometry x="945" y="173" width="10" height="10" as="geometry" />
        </mxCell>
        <mxCell id="JSG22xjSIqNUpcC9qA1A-10" value="&lt;font style=&quot;font-size: 18px;&quot;&gt;Anno&lt;/font&gt;" style="text;html=1;align=center;verticalAlign=middle;resizable=0;points=[];autosize=1;strokeColor=none;fillColor=none;" parent="WIyWlLk6GJQsqaUBKTNV-1" vertex="1">
          <mxGeometry x="947" y="156" width="70" height="40" as="geometry" />
        </mxCell>
        <mxCell id="JSG22xjSIqNUpcC9qA1A-11" value="" style="endArrow=none;html=1;rounded=0;exitX=1;exitY=0.75;exitDx=0;exitDy=0;" parent="WIyWlLk6GJQsqaUBKTNV-1" source="_YLGB2GQ0n293Me-cr1F-0" target="JSG22xjSIqNUpcC9qA1A-12" edge="1">
          <mxGeometry width="50" height="50" relative="1" as="geometry">
            <mxPoint x="885" y="250" as="sourcePoint" />
            <mxPoint x="905" y="189" as="targetPoint" />
          </mxGeometry>
        </mxCell>
        <mxCell id="JSG22xjSIqNUpcC9qA1A-12" value="" style="ellipse;whiteSpace=wrap;html=1;aspect=fixed;" parent="WIyWlLk6GJQsqaUBKTNV-1" vertex="1">
          <mxGeometry x="947" y="211" width="10" height="10" as="geometry" />
        </mxCell>
        <mxCell id="JSG22xjSIqNUpcC9qA1A-13" value="&lt;font style=&quot;font-size: 18px;&quot;&gt;nPosti&lt;/font&gt;" style="text;html=1;align=center;verticalAlign=middle;resizable=0;points=[];autosize=1;strokeColor=none;fillColor=none;" parent="WIyWlLk6GJQsqaUBKTNV-1" vertex="1">
          <mxGeometry x="957" y="196" width="70" height="40" as="geometry" />
        </mxCell>
        <mxCell id="JSG22xjSIqNUpcC9qA1A-15" value="" style="endArrow=none;html=1;rounded=0;exitX=1;exitY=1;exitDx=0;exitDy=0;" parent="WIyWlLk6GJQsqaUBKTNV-1" source="_YLGB2GQ0n293Me-cr1F-0" target="JSG22xjSIqNUpcC9qA1A-16" edge="1">
          <mxGeometry width="50" height="50" relative="1" as="geometry">
            <mxPoint x="867" y="289" as="sourcePoint" />
            <mxPoint x="887" y="228" as="targetPoint" />
          </mxGeometry>
        </mxCell>
        <mxCell id="JSG22xjSIqNUpcC9qA1A-16" value="" style="ellipse;whiteSpace=wrap;html=1;aspect=fixed;" parent="WIyWlLk6GJQsqaUBKTNV-1" vertex="1">
          <mxGeometry x="945" y="251" width="10" height="10" as="geometry" />
        </mxCell>
        <mxCell id="JSG22xjSIqNUpcC9qA1A-17" value="&lt;font style=&quot;font-size: 18px;&quot;&gt;Motore&lt;/font&gt;" style="text;html=1;align=center;verticalAlign=middle;resizable=0;points=[];autosize=1;strokeColor=none;fillColor=none;" parent="WIyWlLk6GJQsqaUBKTNV-1" vertex="1">
          <mxGeometry x="950" y="246" width="80" height="40" as="geometry" />
        </mxCell>
        <mxCell id="JSG22xjSIqNUpcC9qA1A-18" value="" style="endArrow=none;html=1;rounded=0;exitX=0.9;exitY=0.996;exitDx=0;exitDy=0;exitPerimeter=0;" parent="WIyWlLk6GJQsqaUBKTNV-1" source="_YLGB2GQ0n293Me-cr1F-0" target="JSG22xjSIqNUpcC9qA1A-19" edge="1">
          <mxGeometry width="50" height="50" relative="1" as="geometry">
            <mxPoint x="825" y="319" as="sourcePoint" />
            <mxPoint x="845" y="258" as="targetPoint" />
          </mxGeometry>
        </mxCell>
        <mxCell id="JSG22xjSIqNUpcC9qA1A-19" value="" style="ellipse;whiteSpace=wrap;html=1;aspect=fixed;" parent="WIyWlLk6GJQsqaUBKTNV-1" vertex="1">
          <mxGeometry x="905" y="276" width="10" height="10" as="geometry" />
        </mxCell>
        <mxCell id="JSG22xjSIqNUpcC9qA1A-20" value="&lt;font style=&quot;font-size: 18px;&quot;&gt;Carburante&lt;/font&gt;" style="text;html=1;align=center;verticalAlign=middle;resizable=0;points=[];autosize=1;strokeColor=none;fillColor=none;" parent="WIyWlLk6GJQsqaUBKTNV-1" vertex="1">
          <mxGeometry x="905" y="276" width="110" height="40" as="geometry" />
        </mxCell>
        <mxCell id="JSG22xjSIqNUpcC9qA1A-21" value="&lt;font style=&quot;font-size: 17px;&quot;&gt;Noleggia&lt;/font&gt;" style="html=1;whiteSpace=wrap;aspect=fixed;shape=isoRectangle;" parent="WIyWlLk6GJQsqaUBKTNV-1" vertex="1">
          <mxGeometry x="568" y="347" width="150" height="90" as="geometry" />
        </mxCell>
        <mxCell id="JSG22xjSIqNUpcC9qA1A-22" value="" style="endArrow=none;html=1;rounded=0;entryX=0.5;entryY=1;entryDx=0;entryDy=0;exitX=0.745;exitY=0.254;exitDx=0;exitDy=0;exitPerimeter=0;" parent="WIyWlLk6GJQsqaUBKTNV-1" source="JSG22xjSIqNUpcC9qA1A-21" target="_YLGB2GQ0n293Me-cr1F-0" edge="1">
          <mxGeometry width="50" height="50" relative="1" as="geometry">
            <mxPoint x="715" y="381" as="sourcePoint" />
            <mxPoint x="745" y="371" as="targetPoint" />
          </mxGeometry>
        </mxCell>
        <mxCell id="JSG22xjSIqNUpcC9qA1A-25" value="" style="endArrow=none;html=1;rounded=0;" parent="WIyWlLk6GJQsqaUBKTNV-1" target="_YLGB2GQ0n293Me-cr1F-3" edge="1">
          <mxGeometry width="50" height="50" relative="1" as="geometry">
            <mxPoint x="855" y="161" as="sourcePoint" />
            <mxPoint x="905" y="111" as="targetPoint" />
          </mxGeometry>
        </mxCell>
        <mxCell id="_YLGB2GQ0n293Me-cr1F-3" value="" style="shape=waypoint;sketch=0;fillStyle=solid;size=6;pointerEvents=1;points=[];fillColor=none;resizable=0;rotatable=0;perimeter=centerPerimeter;snapToPoint=1;strokeWidth=3;" parent="WIyWlLk6GJQsqaUBKTNV-1" vertex="1">
          <mxGeometry x="915" y="98" width="20" height="20" as="geometry" />
        </mxCell>
        <mxCell id="JSG22xjSIqNUpcC9qA1A-30" value="" style="endArrow=none;html=1;rounded=0;exitX=0.9;exitY=0.996;exitDx=0;exitDy=0;exitPerimeter=0;" parent="WIyWlLk6GJQsqaUBKTNV-1" target="JSG22xjSIqNUpcC9qA1A-31" edge="1">
          <mxGeometry width="50" height="50" relative="1" as="geometry">
            <mxPoint x="843" y="221" as="sourcePoint" />
            <mxPoint x="825" y="258" as="targetPoint" />
          </mxGeometry>
        </mxCell>
        <mxCell id="JSG22xjSIqNUpcC9qA1A-31" value="" style="ellipse;whiteSpace=wrap;html=1;aspect=fixed;" parent="WIyWlLk6GJQsqaUBKTNV-1" vertex="1">
          <mxGeometry x="865" y="301" width="10" height="10" as="geometry" />
        </mxCell>
        <mxCell id="JSG22xjSIqNUpcC9qA1A-32" value="&lt;font style=&quot;font-size: 18px;&quot;&gt;Username&lt;/font&gt;" style="text;html=1;align=center;verticalAlign=middle;resizable=0;points=[];autosize=1;strokeColor=none;fillColor=none;" parent="WIyWlLk6GJQsqaUBKTNV-1" vertex="1">
          <mxGeometry x="827" y="307" width="110" height="40" as="geometry" />
        </mxCell>
        <mxCell id="JSG22xjSIqNUpcC9qA1A-33" value="" style="endArrow=none;html=1;rounded=0;exitX=0.652;exitY=0.001;exitDx=0;exitDy=0;exitPerimeter=0;" parent="WIyWlLk6GJQsqaUBKTNV-1" source="_YLGB2GQ0n293Me-cr1F-0" target="JSG22xjSIqNUpcC9qA1A-34" edge="1">
          <mxGeometry width="50" height="50" relative="1" as="geometry">
            <mxPoint x="695" y="31" as="sourcePoint" />
            <mxPoint x="677" y="68" as="targetPoint" />
          </mxGeometry>
        </mxCell>
        <mxCell id="JSG22xjSIqNUpcC9qA1A-34" value="" style="ellipse;whiteSpace=wrap;html=1;aspect=fixed;" parent="WIyWlLk6GJQsqaUBKTNV-1" vertex="1">
          <mxGeometry x="845" y="63" width="10" height="10" as="geometry" />
        </mxCell>
        <mxCell id="JSG22xjSIqNUpcC9qA1A-35" value="&lt;font style=&quot;font-size: 18px;&quot;&gt;Descrizione&lt;/font&gt;" style="text;html=1;align=center;verticalAlign=middle;resizable=0;points=[];autosize=1;strokeColor=none;fillColor=none;" parent="WIyWlLk6GJQsqaUBKTNV-1" vertex="1">
          <mxGeometry x="795" y="30" width="120" height="40" as="geometry" />
        </mxCell>
        <mxCell id="JSG22xjSIqNUpcC9qA1A-38" value="" style="endArrow=none;html=1;rounded=0;exitX=0.5;exitY=0;exitDx=0;exitDy=0;" parent="WIyWlLk6GJQsqaUBKTNV-1" source="_YLGB2GQ0n293Me-cr1F-0" target="JSG22xjSIqNUpcC9qA1A-39" edge="1">
          <mxGeometry width="50" height="50" relative="1" as="geometry">
            <mxPoint x="635" y="118" as="sourcePoint" />
            <mxPoint x="597" y="17" as="targetPoint" />
          </mxGeometry>
        </mxCell>
        <mxCell id="JSG22xjSIqNUpcC9qA1A-39" value="" style="ellipse;whiteSpace=wrap;html=1;aspect=fixed;" parent="WIyWlLk6GJQsqaUBKTNV-1" vertex="1">
          <mxGeometry x="795" y="88" width="10" height="10" as="geometry" />
        </mxCell>
        <mxCell id="JSG22xjSIqNUpcC9qA1A-40" value="&lt;font style=&quot;font-size: 18px;&quot;&gt;Data_inizio&lt;/font&gt;" style="text;html=1;align=center;verticalAlign=middle;resizable=0;points=[];autosize=1;strokeColor=none;fillColor=none;" parent="WIyWlLk6GJQsqaUBKTNV-1" vertex="1">
          <mxGeometry x="724" y="55" width="110" height="40" as="geometry" />
        </mxCell>
        <mxCell id="JSG22xjSIqNUpcC9qA1A-41" value="" style="endArrow=none;html=1;rounded=0;exitX=1.003;exitY=0.853;exitDx=0;exitDy=0;exitPerimeter=0;" parent="WIyWlLk6GJQsqaUBKTNV-1" source="_YLGB2GQ0n293Me-cr1F-0" target="JSG22xjSIqNUpcC9qA1A-42" edge="1">
          <mxGeometry width="50" height="50" relative="1" as="geometry">
            <mxPoint x="915" y="206" as="sourcePoint" />
            <mxPoint x="927" y="213" as="targetPoint" />
          </mxGeometry>
        </mxCell>
        <mxCell id="JSG22xjSIqNUpcC9qA1A-42" value="" style="ellipse;whiteSpace=wrap;html=1;aspect=fixed;" parent="WIyWlLk6GJQsqaUBKTNV-1" vertex="1">
          <mxGeometry x="1005" y="236" width="10" height="10" as="geometry" />
        </mxCell>
        <mxCell id="JSG22xjSIqNUpcC9qA1A-43" value="&lt;span style=&quot;font-size: 18px;&quot;&gt;Nome_img&lt;/span&gt;" style="text;html=1;align=center;verticalAlign=middle;resizable=0;points=[];autosize=1;strokeColor=none;fillColor=none;" parent="WIyWlLk6GJQsqaUBKTNV-1" vertex="1">
          <mxGeometry x="1009" y="221" width="110" height="40" as="geometry" />
        </mxCell>
        <mxCell id="JSG22xjSIqNUpcC9qA1A-44" value="" style="endArrow=none;html=1;rounded=0;exitX=0.5;exitY=0;exitDx=0;exitDy=0;" parent="WIyWlLk6GJQsqaUBKTNV-1" target="JSG22xjSIqNUpcC9qA1A-45" edge="1">
          <mxGeometry width="50" height="50" relative="1" as="geometry">
            <mxPoint x="815" y="161" as="sourcePoint" />
            <mxPoint x="597" y="17" as="targetPoint" />
          </mxGeometry>
        </mxCell>
        <mxCell id="JSG22xjSIqNUpcC9qA1A-45" value="" style="ellipse;whiteSpace=wrap;html=1;aspect=fixed;" parent="WIyWlLk6GJQsqaUBKTNV-1" vertex="1">
          <mxGeometry x="795" y="88" width="10" height="10" as="geometry" />
        </mxCell>
        <mxCell id="JSG22xjSIqNUpcC9qA1A-50" value="" style="endArrow=none;html=1;rounded=0;exitX=0;exitY=0.25;exitDx=0;exitDy=0;" parent="WIyWlLk6GJQsqaUBKTNV-1" source="_YLGB2GQ0n293Me-cr1F-0" target="JSG22xjSIqNUpcC9qA1A-51" edge="1">
          <mxGeometry width="50" height="50" relative="1" as="geometry">
            <mxPoint x="681" y="176" as="sourcePoint" />
            <mxPoint x="463" y="32" as="targetPoint" />
          </mxGeometry>
        </mxCell>
        <mxCell id="JSG22xjSIqNUpcC9qA1A-51" value="" style="ellipse;whiteSpace=wrap;html=1;aspect=fixed;" parent="WIyWlLk6GJQsqaUBKTNV-1" vertex="1">
          <mxGeometry x="705" y="146" width="10" height="10" as="geometry" />
        </mxCell>
        <mxCell id="JSG22xjSIqNUpcC9qA1A-52" value="&lt;font style=&quot;font-size: 18px;&quot;&gt;CatId&lt;/font&gt;" style="text;html=1;align=center;verticalAlign=middle;resizable=0;points=[];autosize=1;strokeColor=none;fillColor=none;" parent="WIyWlLk6GJQsqaUBKTNV-1" vertex="1">
          <mxGeometry x="645" y="116" width="70" height="40" as="geometry" />
        </mxCell>
        <mxCell id="JSG22xjSIqNUpcC9qA1A-53" value="" style="endArrow=none;html=1;rounded=0;exitX=0.603;exitY=1.001;exitDx=0;exitDy=0;exitPerimeter=0;" parent="WIyWlLk6GJQsqaUBKTNV-1" source="_YLGB2GQ0n293Me-cr1F-0" target="JSG22xjSIqNUpcC9qA1A-54" edge="1">
          <mxGeometry width="50" height="50" relative="1" as="geometry">
            <mxPoint x="831" y="435" as="sourcePoint" />
            <mxPoint x="613" y="291" as="targetPoint" />
          </mxGeometry>
        </mxCell>
        <mxCell id="JSG22xjSIqNUpcC9qA1A-54" value="" style="ellipse;whiteSpace=wrap;html=1;aspect=fixed;" parent="WIyWlLk6GJQsqaUBKTNV-1" vertex="1">
          <mxGeometry x="805" y="337" width="10" height="10" as="geometry" />
        </mxCell>
        <mxCell id="JSG22xjSIqNUpcC9qA1A-55" value="&lt;font style=&quot;font-size: 18px;&quot;&gt;Prezzo&lt;/font&gt;" style="text;html=1;align=center;verticalAlign=middle;resizable=0;points=[];autosize=1;strokeColor=none;fillColor=none;" parent="WIyWlLk6GJQsqaUBKTNV-1" vertex="1">
          <mxGeometry x="775" y="347" width="80" height="40" as="geometry" />
        </mxCell>
        <mxCell id="JSG22xjSIqNUpcC9qA1A-56" value="" style="endArrow=none;html=1;rounded=0;exitX=0.177;exitY=0;exitDx=0;exitDy=0;exitPerimeter=0;" parent="WIyWlLk6GJQsqaUBKTNV-1" source="_YLGB2GQ0n293Me-cr1F-0" target="JSG22xjSIqNUpcC9qA1A-57" edge="1">
          <mxGeometry width="50" height="50" relative="1" as="geometry">
            <mxPoint x="711" y="136" as="sourcePoint" />
            <mxPoint x="493" y="-8" as="targetPoint" />
          </mxGeometry>
        </mxCell>
        <mxCell id="JSG22xjSIqNUpcC9qA1A-57" value="" style="ellipse;whiteSpace=wrap;html=1;aspect=fixed;" parent="WIyWlLk6GJQsqaUBKTNV-1" vertex="1">
          <mxGeometry x="691" y="63" width="10" height="10" as="geometry" />
        </mxCell>
        <mxCell id="JSG22xjSIqNUpcC9qA1A-58" value="&lt;font style=&quot;font-size: 18px;&quot;&gt;Data_fine&lt;/font&gt;" style="text;html=1;align=center;verticalAlign=middle;resizable=0;points=[];autosize=1;strokeColor=none;fillColor=none;" parent="WIyWlLk6GJQsqaUBKTNV-1" vertex="1">
          <mxGeometry x="625" y="30" width="100" height="40" as="geometry" />
        </mxCell>
        <mxCell id="JSG22xjSIqNUpcC9qA1A-59" value="" style="endArrow=none;html=1;rounded=0;exitX=0.75;exitY=0;exitDx=0;exitDy=0;" parent="WIyWlLk6GJQsqaUBKTNV-1" source="_YLGB2GQ0n293Me-cr1F-1" edge="1">
          <mxGeometry width="50" height="50" relative="1" as="geometry">
            <mxPoint x="595" y="133" as="sourcePoint" />
            <mxPoint x="347.24066549573956" y="112.16966102866024" as="targetPoint" />
          </mxGeometry>
        </mxCell>
        <mxCell id="JSG22xjSIqNUpcC9qA1A-61" value="&lt;font style=&quot;font-size: 18px;&quot;&gt;CatId&lt;/font&gt;" style="text;html=1;align=center;verticalAlign=middle;resizable=0;points=[];autosize=1;strokeColor=none;fillColor=none;" parent="WIyWlLk6GJQsqaUBKTNV-1" vertex="1">
          <mxGeometry x="335" y="73" width="70" height="40" as="geometry" />
        </mxCell>
        <mxCell id="JSG22xjSIqNUpcC9qA1A-62" value="" style="shape=waypoint;sketch=0;fillStyle=solid;size=6;pointerEvents=1;points=[];fillColor=none;resizable=0;rotatable=0;perimeter=centerPerimeter;snapToPoint=1;strokeWidth=3;" parent="WIyWlLk6GJQsqaUBKTNV-1" vertex="1">
          <mxGeometry x="337" y="102" width="20" height="20" as="geometry" />
        </mxCell>
        <mxCell id="JSG22xjSIqNUpcC9qA1A-63" value="" style="endArrow=none;html=1;rounded=0;exitX=0.25;exitY=0;exitDx=0;exitDy=0;" parent="WIyWlLk6GJQsqaUBKTNV-1" source="_YLGB2GQ0n293Me-cr1F-1" target="JSG22xjSIqNUpcC9qA1A-64" edge="1">
          <mxGeometry width="50" height="50" relative="1" as="geometry">
            <mxPoint x="111" y="85" as="sourcePoint" />
            <mxPoint x="93" y="122" as="targetPoint" />
          </mxGeometry>
        </mxCell>
        <mxCell id="JSG22xjSIqNUpcC9qA1A-64" value="" style="ellipse;whiteSpace=wrap;html=1;aspect=fixed;" parent="WIyWlLk6GJQsqaUBKTNV-1" vertex="1">
          <mxGeometry x="235" y="98" width="10" height="10" as="geometry" />
        </mxCell>
        <mxCell id="JSG22xjSIqNUpcC9qA1A-65" value="&lt;font style=&quot;font-size: 18px;&quot;&gt;Nome&lt;/font&gt;" style="text;html=1;align=center;verticalAlign=middle;resizable=0;points=[];autosize=1;strokeColor=none;fillColor=none;" parent="WIyWlLk6GJQsqaUBKTNV-1" vertex="1">
          <mxGeometry x="195" y="63" width="70" height="40" as="geometry" />
        </mxCell>
        <mxCell id="JSG22xjSIqNUpcC9qA1A-67" value="" style="endArrow=none;html=1;rounded=0;entryX=0.28;entryY=0.772;entryDx=0;entryDy=0;entryPerimeter=0;exitX=0.5;exitY=0;exitDx=0;exitDy=0;" parent="WIyWlLk6GJQsqaUBKTNV-1" target="JSG22xjSIqNUpcC9qA1A-21" edge="1" source="JSG22xjSIqNUpcC9qA1A-68">
          <mxGeometry width="50" height="50" relative="1" as="geometry">
            <mxPoint x="557.5" y="557.34" as="sourcePoint" />
            <mxPoint x="620.3999999999999" y="480.9999999999999" as="targetPoint" />
          </mxGeometry>
        </mxCell>
        <mxCell id="JSG22xjSIqNUpcC9qA1A-68" value="&lt;font style=&quot;font-size: 20px;&quot;&gt;Utente&lt;/font&gt;" style="whiteSpace=wrap;html=1;" parent="WIyWlLk6GJQsqaUBKTNV-1" vertex="1">
          <mxGeometry x="464" y="519" width="120" height="60" as="geometry" />
        </mxCell>
        <mxCell id="JSG22xjSIqNUpcC9qA1A-69" value="&lt;font style=&quot;font-size: 18px;&quot;&gt;Username&lt;/font&gt;" style="text;html=1;align=center;verticalAlign=middle;resizable=0;points=[];autosize=1;strokeColor=none;fillColor=none;" parent="WIyWlLk6GJQsqaUBKTNV-1" vertex="1">
          <mxGeometry x="468" y="669" width="110" height="40" as="geometry" />
        </mxCell>
        <mxCell id="JSG22xjSIqNUpcC9qA1A-70" value="" style="endArrow=none;html=1;rounded=0;exitDx=0;exitDy=0;entryX=0.514;entryY=0;entryDx=0;entryDy=0;entryPerimeter=0;" parent="WIyWlLk6GJQsqaUBKTNV-1" source="JSG22xjSIqNUpcC9qA1A-71" target="JSG22xjSIqNUpcC9qA1A-69" edge="1">
          <mxGeometry width="50" height="50" relative="1" as="geometry">
            <mxPoint x="415.5" y="685.66" as="sourcePoint" />
            <mxPoint x="465.5" y="635.66" as="targetPoint" />
          </mxGeometry>
        </mxCell>
        <mxCell id="JSG22xjSIqNUpcC9qA1A-72" value="" style="endArrow=none;html=1;rounded=0;exitX=0.5;exitY=1;exitDx=0;exitDy=0;entryDx=0;entryDy=0;entryPerimeter=0;" parent="WIyWlLk6GJQsqaUBKTNV-1" source="JSG22xjSIqNUpcC9qA1A-68" target="JSG22xjSIqNUpcC9qA1A-71" edge="1">
          <mxGeometry width="50" height="50" relative="1" as="geometry">
            <mxPoint x="524" y="579" as="sourcePoint" />
            <mxPoint x="524" y="669" as="targetPoint" />
          </mxGeometry>
        </mxCell>
        <mxCell id="JSG22xjSIqNUpcC9qA1A-71" value="" style="shape=waypoint;sketch=0;fillStyle=solid;size=6;pointerEvents=1;points=[];fillColor=none;resizable=0;rotatable=0;perimeter=centerPerimeter;snapToPoint=1;strokeWidth=3;" parent="WIyWlLk6GJQsqaUBKTNV-1" vertex="1">
          <mxGeometry x="514" y="659" width="20" height="20" as="geometry" />
        </mxCell>
        <mxCell id="JSG22xjSIqNUpcC9qA1A-75" value="" style="endArrow=none;html=1;rounded=0;exitX=0.361;exitY=1.005;exitDx=0;exitDy=0;exitPerimeter=0;" parent="WIyWlLk6GJQsqaUBKTNV-1" source="JSG22xjSIqNUpcC9qA1A-68" target="JSG22xjSIqNUpcC9qA1A-76" edge="1">
          <mxGeometry width="50" height="50" relative="1" as="geometry">
            <mxPoint x="458" y="738" as="sourcePoint" />
            <mxPoint x="296" y="699" as="targetPoint" />
          </mxGeometry>
        </mxCell>
        <mxCell id="JSG22xjSIqNUpcC9qA1A-76" value="" style="ellipse;whiteSpace=wrap;html=1;aspect=fixed;" parent="WIyWlLk6GJQsqaUBKTNV-1" vertex="1">
          <mxGeometry x="438" y="675" width="10" height="10" as="geometry" />
        </mxCell>
        <mxCell id="JSG22xjSIqNUpcC9qA1A-77" value="&lt;font style=&quot;font-size: 18px;&quot;&gt;Password&lt;/font&gt;" style="text;html=1;align=center;verticalAlign=middle;resizable=0;points=[];autosize=1;strokeColor=none;fillColor=none;" parent="WIyWlLk6GJQsqaUBKTNV-1" vertex="1">
          <mxGeometry x="379" y="679" width="100" height="40" as="geometry" />
        </mxCell>
        <mxCell id="JSG22xjSIqNUpcC9qA1A-81" value="" style="endArrow=none;html=1;rounded=0;exitX=0.668;exitY=1.005;exitDx=0;exitDy=0;exitPerimeter=0;" parent="WIyWlLk6GJQsqaUBKTNV-1" source="JSG22xjSIqNUpcC9qA1A-68" target="JSG22xjSIqNUpcC9qA1A-82" edge="1">
          <mxGeometry width="50" height="50" relative="1" as="geometry">
            <mxPoint x="662" y="610" as="sourcePoint" />
            <mxPoint x="451" y="730" as="targetPoint" />
          </mxGeometry>
        </mxCell>
        <mxCell id="JSG22xjSIqNUpcC9qA1A-82" value="" style="ellipse;whiteSpace=wrap;html=1;aspect=fixed;" parent="WIyWlLk6GJQsqaUBKTNV-1" vertex="1">
          <mxGeometry x="599" y="684" width="10" height="10" as="geometry" />
        </mxCell>
        <mxCell id="JSG22xjSIqNUpcC9qA1A-83" value="&lt;span style=&quot;font-size: 18px;&quot;&gt;Cognome&lt;/span&gt;" style="text;html=1;align=center;verticalAlign=middle;resizable=0;points=[];autosize=1;strokeColor=none;fillColor=none;" parent="WIyWlLk6GJQsqaUBKTNV-1" vertex="1">
          <mxGeometry x="566" y="685" width="100" height="40" as="geometry" />
        </mxCell>
        <mxCell id="JSG22xjSIqNUpcC9qA1A-84" value="" style="endArrow=none;html=1;rounded=0;exitX=0.808;exitY=1.005;exitDx=0;exitDy=0;exitPerimeter=0;" parent="WIyWlLk6GJQsqaUBKTNV-1" source="JSG22xjSIqNUpcC9qA1A-68" target="JSG22xjSIqNUpcC9qA1A-85" edge="1">
          <mxGeometry width="50" height="50" relative="1" as="geometry">
            <mxPoint x="527" y="599" as="sourcePoint" />
            <mxPoint x="316" y="719" as="targetPoint" />
          </mxGeometry>
        </mxCell>
        <mxCell id="JSG22xjSIqNUpcC9qA1A-85" value="" style="ellipse;whiteSpace=wrap;html=1;aspect=fixed;" parent="WIyWlLk6GJQsqaUBKTNV-1" vertex="1">
          <mxGeometry x="618" y="649" width="10" height="10" as="geometry" />
        </mxCell>
        <mxCell id="JSG22xjSIqNUpcC9qA1A-86" value="&lt;font style=&quot;font-size: 18px;&quot;&gt;Nome&lt;/font&gt;" style="text;html=1;align=center;verticalAlign=middle;resizable=0;points=[];autosize=1;strokeColor=none;fillColor=none;" parent="WIyWlLk6GJQsqaUBKTNV-1" vertex="1">
          <mxGeometry x="618" y="649" width="70" height="40" as="geometry" />
        </mxCell>
        <mxCell id="JSG22xjSIqNUpcC9qA1A-87" value="" style="endArrow=none;html=1;rounded=0;exitX=0.25;exitY=1;exitDx=0;exitDy=0;" parent="WIyWlLk6GJQsqaUBKTNV-1" source="JSG22xjSIqNUpcC9qA1A-68" target="JSG22xjSIqNUpcC9qA1A-88" edge="1">
          <mxGeometry width="50" height="50" relative="1" as="geometry">
            <mxPoint x="438" y="589" as="sourcePoint" />
            <mxPoint x="227" y="709" as="targetPoint" />
          </mxGeometry>
        </mxCell>
        <mxCell id="JSG22xjSIqNUpcC9qA1A-88" value="" style="ellipse;whiteSpace=wrap;html=1;aspect=fixed;" parent="WIyWlLk6GJQsqaUBKTNV-1" vertex="1">
          <mxGeometry x="408" y="639" width="10" height="10" as="geometry" />
        </mxCell>
        <mxCell id="JSG22xjSIqNUpcC9qA1A-89" value="&lt;font style=&quot;font-size: 18px;&quot;&gt;Ruolo&lt;/font&gt;" style="text;html=1;align=center;verticalAlign=middle;resizable=0;points=[];autosize=1;strokeColor=none;fillColor=none;" parent="WIyWlLk6GJQsqaUBKTNV-1" vertex="1">
          <mxGeometry x="348" y="639" width="70" height="40" as="geometry" />
        </mxCell>
        <mxCell id="JSG22xjSIqNUpcC9qA1A-90" value="" style="endArrow=none;html=1;rounded=0;exitX=1;exitY=0.832;exitDx=0;exitDy=0;exitPerimeter=0;" parent="WIyWlLk6GJQsqaUBKTNV-1" source="JSG22xjSIqNUpcC9qA1A-68" target="JSG22xjSIqNUpcC9qA1A-91" edge="1">
          <mxGeometry width="50" height="50" relative="1" as="geometry">
            <mxPoint x="588" y="569" as="sourcePoint" />
            <mxPoint x="526" y="609" as="targetPoint" />
          </mxGeometry>
        </mxCell>
        <mxCell id="JSG22xjSIqNUpcC9qA1A-91" value="" style="ellipse;whiteSpace=wrap;html=1;aspect=fixed;" parent="WIyWlLk6GJQsqaUBKTNV-1" vertex="1">
          <mxGeometry x="643" y="609" width="10" height="10" as="geometry" />
        </mxCell>
        <mxCell id="JSG22xjSIqNUpcC9qA1A-92" value="&lt;font style=&quot;font-size: 18px;&quot;&gt;Residenza&lt;/font&gt;" style="text;html=1;align=center;verticalAlign=middle;resizable=0;points=[];autosize=1;strokeColor=none;fillColor=none;" parent="WIyWlLk6GJQsqaUBKTNV-1" vertex="1">
          <mxGeometry x="645" y="606" width="110" height="40" as="geometry" />
        </mxCell>
        <mxCell id="JSG22xjSIqNUpcC9qA1A-93" value="" style="endArrow=none;html=1;rounded=0;exitX=1;exitY=0.689;exitDx=0;exitDy=0;exitPerimeter=0;" parent="WIyWlLk6GJQsqaUBKTNV-1" source="JSG22xjSIqNUpcC9qA1A-68" target="JSG22xjSIqNUpcC9qA1A-94" edge="1">
          <mxGeometry width="50" height="50" relative="1" as="geometry">
            <mxPoint x="607" y="529" as="sourcePoint" />
            <mxPoint x="549" y="569" as="targetPoint" />
          </mxGeometry>
        </mxCell>
        <mxCell id="JSG22xjSIqNUpcC9qA1A-94" value="" style="ellipse;whiteSpace=wrap;html=1;aspect=fixed;" parent="WIyWlLk6GJQsqaUBKTNV-1" vertex="1">
          <mxGeometry x="643" y="559" width="10" height="10" as="geometry" />
        </mxCell>
        <mxCell id="JSG22xjSIqNUpcC9qA1A-95" value="&lt;font style=&quot;font-size: 18px;&quot;&gt;Nascita&lt;/font&gt;" style="text;html=1;align=center;verticalAlign=middle;resizable=0;points=[];autosize=1;strokeColor=none;fillColor=none;" parent="WIyWlLk6GJQsqaUBKTNV-1" vertex="1">
          <mxGeometry x="647" y="544" width="80" height="40" as="geometry" />
        </mxCell>
        <mxCell id="JSG22xjSIqNUpcC9qA1A-96" value="" style="endArrow=none;html=1;rounded=0;exitX=0.25;exitY=1;exitDx=0;exitDy=0;" parent="WIyWlLk6GJQsqaUBKTNV-1" target="JSG22xjSIqNUpcC9qA1A-97" edge="1">
          <mxGeometry width="50" height="50" relative="1" as="geometry">
            <mxPoint x="464" y="564" as="sourcePoint" />
            <mxPoint x="197" y="694" as="targetPoint" />
          </mxGeometry>
        </mxCell>
        <mxCell id="JSG22xjSIqNUpcC9qA1A-97" value="" style="ellipse;whiteSpace=wrap;html=1;aspect=fixed;" parent="WIyWlLk6GJQsqaUBKTNV-1" vertex="1">
          <mxGeometry x="390" y="589" width="10" height="10" as="geometry" />
        </mxCell>
        <mxCell id="JSG22xjSIqNUpcC9qA1A-98" value="&lt;font style=&quot;font-size: 18px;&quot;&gt;Occupazione&lt;/font&gt;" style="text;html=1;align=center;verticalAlign=middle;resizable=0;points=[];autosize=1;strokeColor=none;fillColor=none;" parent="WIyWlLk6GJQsqaUBKTNV-1" vertex="1">
          <mxGeometry x="288" y="589" width="130" height="40" as="geometry" />
        </mxCell>
        <mxCell id="JSG22xjSIqNUpcC9qA1A-102" value="" style="endArrow=none;html=1;rounded=0;exitX=0;exitY=0.5;exitDx=0;exitDy=0;" parent="WIyWlLk6GJQsqaUBKTNV-1" source="JSG22xjSIqNUpcC9qA1A-68" target="JSG22xjSIqNUpcC9qA1A-103" edge="1">
          <mxGeometry width="50" height="50" relative="1" as="geometry">
            <mxPoint x="418" y="469" as="sourcePoint" />
            <mxPoint x="151" y="599" as="targetPoint" />
          </mxGeometry>
        </mxCell>
        <mxCell id="JSG22xjSIqNUpcC9qA1A-103" value="" style="ellipse;whiteSpace=wrap;html=1;aspect=fixed;" parent="WIyWlLk6GJQsqaUBKTNV-1" vertex="1">
          <mxGeometry x="384.75" y="544" width="10" height="10" as="geometry" />
        </mxCell>
        <mxCell id="JSG22xjSIqNUpcC9qA1A-104" value="&lt;font style=&quot;font-size: 18px;&quot;&gt;Email&lt;/font&gt;" style="text;html=1;align=center;verticalAlign=middle;resizable=0;points=[];autosize=1;strokeColor=none;fillColor=none;" parent="WIyWlLk6GJQsqaUBKTNV-1" vertex="1">
          <mxGeometry x="314.75" y="529" width="70" height="40" as="geometry" />
        </mxCell>
        <mxCell id="JSG22xjSIqNUpcC9qA1A-107" value="&lt;font style=&quot;font-size: 20px;&quot;&gt;FAQ&lt;/font&gt;" style="whiteSpace=wrap;html=1;" parent="WIyWlLk6GJQsqaUBKTNV-1" vertex="1">
          <mxGeometry x="134.75" y="434" width="120" height="60" as="geometry" />
        </mxCell>
        <mxCell id="JSG22xjSIqNUpcC9qA1A-108" value="" style="endArrow=none;html=1;rounded=0;exitX=0.75;exitY=0;exitDx=0;exitDy=0;" parent="WIyWlLk6GJQsqaUBKTNV-1" source="JSG22xjSIqNUpcC9qA1A-107" edge="1">
          <mxGeometry width="50" height="50" relative="1" as="geometry">
            <mxPoint x="504.75" y="406" as="sourcePoint" />
            <mxPoint x="256.99066549573956" y="385.16966102866024" as="targetPoint" />
          </mxGeometry>
        </mxCell>
        <mxCell id="JSG22xjSIqNUpcC9qA1A-109" value="&lt;font style=&quot;font-size: 18px;&quot;&gt;FaqId&lt;/font&gt;" style="text;html=1;align=center;verticalAlign=middle;resizable=0;points=[];autosize=1;strokeColor=none;fillColor=none;" parent="WIyWlLk6GJQsqaUBKTNV-1" vertex="1">
          <mxGeometry x="244.75" y="346" width="70" height="40" as="geometry" />
        </mxCell>
        <mxCell id="JSG22xjSIqNUpcC9qA1A-110" value="" style="shape=waypoint;sketch=0;fillStyle=solid;size=6;pointerEvents=1;points=[];fillColor=none;resizable=0;rotatable=0;perimeter=centerPerimeter;snapToPoint=1;strokeWidth=3;" parent="WIyWlLk6GJQsqaUBKTNV-1" vertex="1">
          <mxGeometry x="246.75" y="375" width="20" height="20" as="geometry" />
        </mxCell>
        <mxCell id="JSG22xjSIqNUpcC9qA1A-111" value="" style="endArrow=none;html=1;rounded=0;exitX=0.5;exitY=0;exitDx=0;exitDy=0;" parent="WIyWlLk6GJQsqaUBKTNV-1" source="JSG22xjSIqNUpcC9qA1A-107" target="JSG22xjSIqNUpcC9qA1A-112" edge="1">
          <mxGeometry width="50" height="50" relative="1" as="geometry">
            <mxPoint x="20.75" y="358" as="sourcePoint" />
            <mxPoint x="2.75" y="395" as="targetPoint" />
          </mxGeometry>
        </mxCell>
        <mxCell id="JSG22xjSIqNUpcC9qA1A-112" value="" style="ellipse;whiteSpace=wrap;html=1;aspect=fixed;" parent="WIyWlLk6GJQsqaUBKTNV-1" vertex="1">
          <mxGeometry x="189.75" y="352" width="10" height="10" as="geometry" />
        </mxCell>
        <mxCell id="JSG22xjSIqNUpcC9qA1A-113" value="&lt;font style=&quot;font-size: 18px;&quot;&gt;Domanda&lt;/font&gt;" style="text;html=1;align=center;verticalAlign=middle;resizable=0;points=[];autosize=1;strokeColor=none;fillColor=none;" parent="WIyWlLk6GJQsqaUBKTNV-1" vertex="1">
          <mxGeometry x="146.75" y="312" width="100" height="40" as="geometry" />
        </mxCell>
        <mxCell id="JSG22xjSIqNUpcC9qA1A-122" value="" style="endArrow=none;html=1;rounded=0;exitX=0.25;exitY=0;exitDx=0;exitDy=0;" parent="WIyWlLk6GJQsqaUBKTNV-1" source="JSG22xjSIqNUpcC9qA1A-107" target="JSG22xjSIqNUpcC9qA1A-123" edge="1">
          <mxGeometry width="50" height="50" relative="1" as="geometry">
            <mxPoint x="109.75" y="426" as="sourcePoint" />
            <mxPoint x="-82.25" y="387" as="targetPoint" />
          </mxGeometry>
        </mxCell>
        <mxCell id="JSG22xjSIqNUpcC9qA1A-123" value="" style="ellipse;whiteSpace=wrap;html=1;aspect=fixed;" parent="WIyWlLk6GJQsqaUBKTNV-1" vertex="1">
          <mxGeometry x="136.75" y="380" width="10" height="10" as="geometry" />
        </mxCell>
        <mxCell id="JSG22xjSIqNUpcC9qA1A-124" value="&lt;font style=&quot;font-size: 18px;&quot;&gt;Risposta&lt;/font&gt;" style="text;html=1;align=center;verticalAlign=middle;resizable=0;points=[];autosize=1;strokeColor=none;fillColor=none;" parent="WIyWlLk6GJQsqaUBKTNV-1" vertex="1">
          <mxGeometry x="74.75" y="346" width="90" height="40" as="geometry" />
        </mxCell>
        <mxCell id="-yMSAJq-A1Y6b1atNKi0-0" value="&lt;font style=&quot;font-size: 16px;&quot;&gt;(1,1)&lt;/font&gt;" style="text;html=1;align=center;verticalAlign=middle;resizable=0;points=[];autosize=1;strokeColor=none;fillColor=none;" vertex="1" parent="WIyWlLk6GJQsqaUBKTNV-1">
          <mxGeometry x="695.5" y="191" width="60" height="30" as="geometry" />
        </mxCell>
        <mxCell id="-yMSAJq-A1Y6b1atNKi0-1" value="&lt;font style=&quot;font-size: 16px;&quot;&gt;(0,N)&lt;/font&gt;" style="text;html=1;align=center;verticalAlign=middle;resizable=0;points=[];autosize=1;strokeColor=none;fillColor=none;" vertex="1" parent="WIyWlLk6GJQsqaUBKTNV-1">
          <mxGeometry x="345" y="191" width="60" height="30" as="geometry" />
        </mxCell>
        <mxCell id="-yMSAJq-A1Y6b1atNKi0-2" value="&lt;font style=&quot;font-size: 16px;&quot;&gt;(0,N)&lt;/font&gt;" style="text;html=1;align=center;verticalAlign=middle;resizable=0;points=[];autosize=1;strokeColor=none;fillColor=none;" vertex="1" parent="WIyWlLk6GJQsqaUBKTNV-1">
          <mxGeometry x="727" y="236" width="60" height="30" as="geometry" />
        </mxCell>
        <mxCell id="-yMSAJq-A1Y6b1atNKi0-3" value="&lt;font style=&quot;font-size: 16px;&quot;&gt;(0,N)&lt;/font&gt;" style="text;html=1;align=center;verticalAlign=middle;resizable=0;points=[];autosize=1;strokeColor=none;fillColor=none;" vertex="1" parent="WIyWlLk6GJQsqaUBKTNV-1">
          <mxGeometry x="479" y="480" width="60" height="30" as="geometry" />
        </mxCell>
      </root>
    </mxGraphModel>
  </diagram>
</mxfile>
